<?xml version="1.0" standalone="no"?>
<!DOCTYPE svg PUBLIC "-//W3C//DTD SVG 20010904//EN"
 "http://www.w3.org/TR/2001/REC-SVG-20010904/DTD/svg10.dtd">
<svg version="1.0" xmlns="http://www.w3.org/2000/svg"
 width="1024.000000pt" height="1024.000000pt" viewBox="0 0 1024.000000 1024.000000"
 preserveAspectRatio="xMidYMid meet">
<metadata>
Created by potrace 1.11, written by Peter Selinger 2001-2013
</metadata>
<g transform="translate(0.000000,1024.000000) scale(0.100000,-0.100000)"
fill="#000000" stroke="none">
<path d="M1170 5120 l0 -4880 1039 0 1039 0 0 2022 c1 1113 1 2042 1 2064 l1
42 1865 0 c1390 0 1865 -3 1866 -12 0 -6 1 -933 2 -2061 l2 -2050 1045 -3
1045 -2 0 4877 0 4878 -1046 3 -1046 2 0 -1855 c0 -1020 -3 -1858 -6 -1862 -9
-8 -3715 -8 -3723 0 -4 3 -6 841 -6 1861 l0 1856 -1039 0 -1039 0 0 -4880z"/>
</g>
</svg>
